<?xml version="1.0" encoding="UTF-8"?>
<svg version="1.1" xmlns="http://www.w3.org/2000/svg" width="362" height="313">
<path d="M0 0 C0.99 0.495 0.99 0.495 2 1 C1.29206299 2.80742676 1.29206299 2.80742676 0.56982422 4.65136719 C-1.66231806 10.35070234 -3.89373515 16.05032129 -6.125 21.75 C-6.52894989 22.78177368 -6.93289978 23.81354736 -7.34909058 24.87658691 C-11.66964669 35.91340138 -15.98635735 46.95165002 -20.27734375 58 C-20.76624084 59.25867889 -20.76624084 59.25867889 -21.26501465 60.54278564 C-22.79366844 64.47940478 -24.32081755 68.41660102 -25.84619141 72.35449219 C-26.38833273 73.75195841 -26.93048688 75.14941966 -27.47265625 76.546875 C-27.93937744 77.75182617 -28.40609863 78.95677734 -28.88696289 80.19824219 C-30 83 -30 83 -31 85 C-17.8 85 -4.6 85 9 85 C7.47496885 88.81257787 6.09719248 91.6376212 3.91796875 95.01953125 C3.01401367 96.43008789 3.01401367 96.43008789 2.09179688 97.86914062 C1.46337891 98.84044922 0.83496094 99.81175781 0.1875 100.8125 C-1.04844196 102.73550687 -2.28412345 104.65868117 -3.51953125 106.58203125 C-4.34094604 107.85397339 -4.34094604 107.85397339 -5.17895508 109.15161133 C-7.47981776 112.75050728 -9.73609036 116.37774458 -12 120 C-1.44 120 9.12 120 20 120 C18.52567851 124.42296446 17.05577162 128.1368796 14.99414062 132.25463867 C14.69779724 132.84922379 14.40145386 133.4438089 14.09613037 134.05641174 C13.12006145 136.01223702 12.13827844 137.96512986 11.15625 139.91796875 C10.46532392 141.29862562 9.77469632 142.67943189 9.08435059 144.06037903 C7.63422803 146.95906161 6.18143677 149.85638507 4.7265625 152.75268555 C2.8914918 156.40605134 1.06155784 160.06195804 -0.76658058 163.71879673 C-7.26950446 176.72410905 -13.77953738 189.72099451 -20.60421753 202.56140137 C-25.09729818 211.02661535 -29.35801589 219.60674854 -33.625 228.1875 C-34.44642203 229.83538246 -35.26803607 231.48316921 -36.08984375 233.13085938 C-38.06209355 237.08614864 -40.03180198 241.04269307 -42 245 C-43.44736256 240.65791231 -41.49524569 237.74642232 -39.7578125 233.7421875 C-39.40258011 232.90224747 -39.04734772 232.06230743 -38.68135071 231.19691467 C-37.50452253 228.41919309 -36.31467601 225.64724023 -35.125 222.875 C-34.30890054 220.95431455 -33.49388998 219.03316607 -32.67993164 217.11157227 C-31.41495433 214.12547928 -30.14930049 211.13969442 -28.88020325 208.15534973 C-24.32755213 197.44570956 -19.87985352 186.69324339 -15.4375 175.9375 C-14.02052828 172.50870125 -12.60235562 169.08040207 -11.18359375 165.65234375 C-10.87400223 164.90227554 -10.56441071 164.15220734 -10.24543762 163.37940979 C-8.11267371 158.22534742 -8.11267371 158.22534742 -7 156 C-14.91059886 155.72706581 -22.4920546 156.54027143 -30.3125 157.6875 C-32.15050171 157.95542358 -32.15050171 157.95542358 -34.02563477 158.22875977 C-67.19912386 163.25740344 -95.34428644 175.68192156 -122.05078125 195.8125 C-127.27653926 199.68855892 -131.60661961 199.62121915 -138 199 C-143.29108875 197.39080937 -147.1054855 194.78708167 -150 190 C-152.08313196 184.25671717 -152.21336937 179.31419627 -151.875 173.25 C-151.82424316 172.29899414 -151.77348633 171.34798828 -151.72119141 170.36816406 C-149.53647121 135.58112838 -140.57049378 101.70925891 -124 71 C-123.49855469 70.04609375 -122.99710938 69.0921875 -122.48046875 68.109375 C-114.8504053 54.40468804 -102.84230118 46.38054028 -88 42 C-87.34 42 -86.68 42 -86 42 C-85.731875 41.236875 -85.46375 40.47375 -85.1875 39.6875 C-83.4334812 35.7178785 -83.4334812 35.7178785 -81 34 C-78.25911007 33.68943086 -75.74991868 33.55576236 -73.0078125 33.56640625 C-72.22485809 33.5611644 -71.44190369 33.55592255 -70.63522339 33.55052185 C-68.97932113 33.54410107 -67.32337327 33.54543943 -65.66748047 33.55395508 C-63.14076842 33.562447 -60.61633132 33.53373749 -58.08984375 33.50195312 C-56.47916734 33.50034047 -54.86848695 33.50091988 -53.2578125 33.50390625 C-52.50557404 33.49267227 -51.75333557 33.48143829 -50.978302 33.46986389 C-46.03044504 33.53517485 -43.4635546 34.45586879 -40 38 C-39.67 38.66 -39.34 39.32 -39 40 C-33.72 40 -28.44 40 -23 40 C-21.38931641 37.17695312 -21.38931641 37.17695312 -19.74609375 34.296875 C-18.68039237 32.42993578 -17.61449685 30.56310754 -16.54858398 28.69628906 C-15.82019197 27.42036264 -15.09199489 26.14432491 -14.36401367 24.86816406 C-9.62016491 16.55251475 -4.84106086 8.25957546 0 0 Z M-70 77 C-70.10883596 79.37625177 -70.18766696 81.74743976 -70.25 84.125 C-70.28351563 84.79015625 -70.31703125 85.4553125 -70.3515625 86.140625 C-70.4517245 91.24888693 -69.27069401 94.11150823 -66 98 C-65.34 98 -64.68 98 -64 98 C-58.97238459 91.40125477 -59.59812173 85.04872876 -60 77 C-63.3 77 -66.6 77 -70 77 Z M-91 98 C-91 100.97 -91 103.94 -91 107 C-88.45716766 107.10871967 -85.91904912 107.18762401 -83.375 107.25 C-82.66214844 107.28351563 -81.94929688 107.31703125 -81.21484375 107.3515625 C-75.85778447 107.44985717 -73.18401517 106.35249165 -69 103 C-69.804375 102.360625 -70.60875 101.72125 -71.4375 101.0625 C-74 99 -74 99 -75 98 C-77.69654854 97.92680379 -80.36691458 97.90757463 -83.0625 97.9375 C-84.20041992 97.94426758 -84.20041992 97.94426758 -85.36132812 97.95117188 C-87.24091871 97.9629932 -89.12046899 97.98092922 -91 98 Z M-61 102 C-57.05831415 106.16435057 -57.05831415 106.16435057 -51.55859375 107.1328125 C-50.18489594 107.13547213 -48.81117907 107.13265281 -47.4375 107.125 C-46.73947266 107.12886719 -46.04144531 107.13273437 -45.32226562 107.13671875 C-41.87251102 107.43922515 -41.87251102 107.43922515 -39 106 C-38.83333333 102.5 -38.83333333 102.5 -39 99 C-40.96120967 97.03879033 -44.52144468 97.725406 -47.1875 97.6875 C-49.15783203 97.63142578 -49.15783203 97.63142578 -51.16796875 97.57421875 C-55.73820945 98.08202327 -57.4591574 99.2080759 -61 102 Z M-66 107 C-71.02761541 113.59874523 -70.40187827 119.95127124 -70 128 C-66.7 128 -63.4 128 -60 128 C-59.28525316 116.77500824 -59.28525316 116.77500824 -64 107 C-64.66 107 -65.32 107 -66 107 Z " fill="#FEFEFE" transform="translate(183,35)"/>
<path d="M0 0 C0.495 0.99 0.495 0.99 1 2 C-0.13647461 4.57519531 -0.13647461 4.57519531 -1.90234375 7.828125 C-2.21550537 8.40977417 -2.52866699 8.99142334 -2.85131836 9.59069824 C-3.87217293 11.48151923 -4.90452829 13.36577563 -5.9375 15.25 C-6.63341996 16.5325923 -7.32881479 17.81546967 -8.02368164 19.09863281 C-12.56535493 27.46532638 -17.17224828 35.79436449 -22 44 C-19.08178537 44.13510253 -16.16982348 44.2341305 -13.25 44.3125 C-12.0125 44.3753418 -12.0125 44.3753418 -10.75 44.43945312 C-8.40030186 44.48682607 -6.30444291 44.46861485 -4 44 C-1.49710299 41.68629173 -1.49710299 41.68629173 0 39 C3.13364979 37.43317511 6.48733407 37.79497656 9.9296875 37.76171875 C10.71642853 37.753647 11.50316956 37.74557526 12.31375122 37.73725891 C13.97981564 37.72342096 15.64590839 37.7126975 17.31201172 37.70483398 C19.858294 37.68761299 22.40328037 37.64372583 24.94921875 37.59960938 C26.56769878 37.58948298 28.18618985 37.58096671 29.8046875 37.57421875 C30.5652243 37.55671066 31.32576111 37.53920258 32.10934448 37.52116394 C35.6553378 37.53569363 37.60868166 37.70064031 40.46533203 39.88598633 C41.99345641 41.99098616 42.63480062 43.44360431 43 46 C44.8253125 46.2784375 44.8253125 46.2784375 46.6875 46.5625 C60.40338061 49.68954825 70.90660411 58.60659258 78.625 70.0625 C97.81013158 102.29172806 107.24594477 140.75212135 109 178 C109.06445312 178.97195312 109.12890625 179.94390625 109.1953125 180.9453125 C109.45114144 187.20459386 108.74243612 191.86022571 105 197 C99.63859672 202.22393141 94.84567668 203.21395595 87.59765625 203.36328125 C81.01297028 202.44241539 76.02060589 197.88601331 70.875 194 C41.8660909 172.62422351 10.31650988 164.25774931 -25 160 C-25.93585938 159.84015625 -26.87171875 159.6803125 -27.8359375 159.515625 C-32.35546024 159.04281339 -34.9696812 159.18407388 -38.609375 162.06640625 C-41.24074744 164.93885163 -43.63349308 167.90622509 -46 171 C-47.51646858 172.85773816 -49.03717871 174.71202357 -50.5625 176.5625 C-51.66271484 177.92568359 -51.66271484 177.92568359 -52.78515625 179.31640625 C-55.65428529 182.79275837 -58.68356412 186.10608163 -61.72265625 189.43359375 C-65.00215201 193.12935483 -68.07750228 196.98105666 -71.15234375 200.84765625 C-73 203 -73 203 -75 204 C-73.54488744 199.90405795 -71.54231842 196.61244727 -69.08984375 193.03125 C-68.69454971 192.45086975 -68.29925568 191.8704895 -67.89198303 191.27252197 C-66.57812464 189.34537118 -65.25774931 187.42277683 -63.9375 185.5 C-63.00531621 184.13481083 -62.07368751 182.76924249 -61.14257812 181.40332031 C-59.66238508 179.23204593 -58.18182109 177.0610338 -56.69955444 174.89117432 C-51.30776756 166.99689145 -45.96220728 159.07158122 -40.61645508 151.14608765 C-31.79144464 138.06468578 -22.93499028 125.00663141 -14 112 C-28.85 111.505 -28.85 111.505 -44 111 C-42.22958837 106.57397093 -40.15643329 102.67837278 -37.71875 98.6171875 C-37.30459839 97.92110382 -36.89044678 97.22502014 -36.46374512 96.50784302 C-35.14584376 94.29487992 -33.82290332 92.08497573 -32.5 89.875 C-31.61036527 88.38169613 -30.7210391 86.8882084 -29.83203125 85.39453125 C-28.98204249 83.96858803 -28.13179105 82.54280136 -27.28125 81.1171875 C-26.88224487 80.44839569 -26.48323975 79.77960388 -26.07214355 79.09054565 C-24.43306898 76.35296963 -22.77032746 73.6554912 -21 71 C-31.89 71 -42.78 71 -54 71 C-52.49756887 67.99513773 -51.25828032 65.87575716 -49.234375 63.3046875 C-48.68112549 62.59795898 -48.12787598 61.89123047 -47.55786133 61.16308594 C-46.96126709 60.40801758 -46.36467285 59.65294922 -45.75 58.875 C-44.47775735 57.25268825 -43.20562506 55.63028996 -41.93359375 54.0078125 C-41.28116699 53.17797852 -40.62874023 52.34814453 -39.95654297 51.49316406 C-36.89370553 47.59028211 -33.85427632 43.66930113 -30.8125 39.75 C-26.70554575 34.46477005 -22.58236705 29.1930334 -18.4375 23.9375 C-12.20145448 16.02774107 -6.10067063 8.01434852 0 0 Z M14.9375 81.5625 C13.60725227 85.0211441 14.14392975 87.4440159 15 91 C16.99685749 93.42144512 16.99685749 93.42144512 20.9375 93.375 C23.80551846 93.28635216 24.72167611 93.21085143 27.0625 91.4375 C28.39274773 87.9788559 27.85607025 85.5559841 27 82 C25.00314251 79.57855488 25.00314251 79.57855488 21.0625 79.625 C18.19448154 79.71364784 17.27832389 79.78914857 14.9375 81.5625 Z M-5.0625 101.5625 C-6.39274773 105.0211441 -5.85607025 107.4440159 -5 111 C-3.00314251 113.42144512 -3.00314251 113.42144512 0.9375 113.375 C3.80551846 113.28635216 4.72167611 113.21085143 7.0625 111.4375 C8.39274773 107.9788559 7.85607025 105.5559841 7 102 C5.00314251 99.57855488 5.00314251 99.57855488 1.0625 99.625 C-1.80551846 99.71364784 -2.72167611 99.78914857 -5.0625 101.5625 Z M34.9375 101.5625 C33.60725227 105.0211441 34.14392975 107.4440159 35 111 C36.99685749 113.42144512 36.99685749 113.42144512 40.9375 113.375 C43.80551846 113.28635216 44.72167611 113.21085143 47.0625 111.4375 C48.39274773 107.9788559 47.85607025 105.5559841 47 102 C45.00314251 99.57855488 45.00314251 99.57855488 41.0625 99.625 C38.19448154 99.71364784 37.27832389 99.78914857 34.9375 101.5625 Z M14.9375 121.5625 C13.60725227 125.0211441 14.14392975 127.4440159 15 131 C16.99685749 133.42144512 16.99685749 133.42144512 20.9375 133.375 C23.80551846 133.28635216 24.72167611 133.21085143 27.0625 131.4375 C28.39274773 127.9788559 27.85607025 125.5559841 27 122 C25.00314251 119.57855488 25.00314251 119.57855488 21.0625 119.625 C18.19448154 119.71364784 17.27832389 119.78914857 14.9375 121.5625 Z " fill="#F68B10" transform="translate(246,31)"/>
<path d="" fill="#FEFEFE" transform="translate(0,0)"/>
</svg>
